<?xml version="1.0" encoding="UTF-8" standalone="no"?>
<!-- Created with Inkscape (http://www.inkscape.org/) -->

<svg
   xmlns:dc="http://purl.org/dc/elements/1.1/"
   xmlns:cc="http://creativecommons.org/ns#"
   xmlns:rdf="http://www.w3.org/1999/02/22-rdf-syntax-ns#"
   xmlns:svg="http://www.w3.org/2000/svg"
   xmlns="http://www.w3.org/2000/svg"
   version="1.1"
   width="241.25"
   height="241.25"
   id="svg2"
   xml:space="preserve"><metadata
     id="metadata8"><rdf:RDF><cc:Work
         rdf:about=""><dc:format>image/svg+xml</dc:format><dc:type
           rdf:resource="http://purl.org/dc/dcmitype/StillImage" /><dc:title></dc:title></cc:Work></rdf:RDF></metadata><defs
     id="defs6" /><g
     transform="matrix(1.25,0,0,-1.25,0,241.25)"
     id="g10"><g
       transform="scale(0.1,0.1)"
       id="g12"><path
         d="m 0,0 1927.56,0 0,1927.56 L 0,1927.56 0,0 z"
         id="path14"
         style="fill:#ffffff;fill-opacity:1;fill-rule:evenodd;stroke:none" /><path
         d="m 1842.52,794.484 -1252.832,0 c -21.297,0 -47.266,17.266 -57.989,38.559 l -91.855,182.217 -5.762,11.43 c -10.73,21.29 -36.691,38.54 -57.98,38.54 l -291.0629,0 0,-22.62 239.7109,0 c 21.289,0 47.25,-17.25 57.984,-38.54 l 5.758,-11.437 91.856,-182.211 c 10.73,-21.289 36.695,-38.543 57.988,-38.543 l 1304.184,0 0,22.605"
         id="path16"
         style="fill:#5a5758;fill-opacity:1;fill-rule:nonzero;stroke:none" /><path
         d="m 1842.52,817.105 -1201.485,0 c -21.289,0 -47.258,17.254 -57.988,38.547 l -91.856,182.218 -5.757,11.43 c -10.739,21.29 -36.692,38.54 -57.985,38.54 l -342.4099,0 0,-22.61 291.0629,0 c 21.289,0 47.25,-17.25 57.98,-38.54 l 5.762,-11.43 91.855,-182.217 c 10.723,-21.293 36.692,-38.559 57.989,-38.559 l 1252.832,0 0,22.621"
         id="path18"
         style="fill:#231f20;fill-opacity:1;fill-rule:nonzero;stroke:none" /><path
         d="m 1842.52,839.711 -1150.137,0 c -21.293,0 -47.258,17.266 -57.985,38.555 l -91.855,182.214 -5.762,11.43 c -10.734,21.29 -36.691,38.55 -57.98,38.55 l -393.7619,0 0,-22.62 342.4099,0 c 21.293,0 47.246,-17.25 57.985,-38.54 l 5.757,-11.43 91.856,-182.218 c 10.73,-21.293 36.699,-38.547 57.988,-38.547 l 1201.485,0 0,22.606"
         id="path20"
         style="fill:#ed1c24;fill-opacity:1;fill-rule:nonzero;stroke:none" /><path
         d="m 1842.52,862.332 -1098.79,0 c -21.285,0 -47.253,17.254 -57.988,38.543 l -91.847,182.215 -5.766,11.43 c -10.734,21.29 -36.688,38.55 -57.981,38.55 l -445.1089,0 0,-22.61 393.7619,0 c 21.289,0 47.246,-17.26 57.98,-38.55 l 5.762,-11.43 91.855,-182.214 c 10.727,-21.289 36.692,-38.555 57.985,-38.555 l 1150.137,0 0,22.621"
         id="path22"
         style="fill:#f89c0e;fill-opacity:1;fill-rule:nonzero;stroke:none" /><path
         d="m 1842.52,884.941 -1047.438,0 c -21.293,0 -47.262,17.266 -57.984,38.555 l -91.86,182.214 -5.758,11.43 c -10.734,21.29 -36.691,38.54 -57.984,38.54 l -496.4569,0 0,-22.61 445.1089,0 c 21.293,0 47.247,-17.26 57.981,-38.55 l 5.766,-11.43 91.847,-182.215 c 10.735,-21.289 36.703,-38.543 57.988,-38.543 l 1098.79,0 0,22.609"
         id="path24"
         style="fill:#fff200;fill-opacity:1;fill-rule:nonzero;stroke:none" /><path
         d="m 1694.0806,991.3069 c -0.7751,0.1338 -1.2127,0.2408 -2.552,0.6232 -0.7472,0.2126 -2.4526,0.9228 -3.1195,1.2978 -1.1869,0.6673 -1.3957,0.7999 -2.3122,1.4675 -2.3236,1.6928 -4.2515,4.0196 -5.5545,6.7032 -0.7356,1.5153 -0.8226,1.7393 -1.189,3.0617 -1.023,3.692 -0.8986,7.3636 0.3762,11.1111 0.3855,1.1333 1.6653,3.681 1.9021,3.7861 0.048,0.024 0.086,0.1004 0.086,0.1768 0,0.076 0.091,0.2389 0.2031,0.3592 0.1098,0.1219 0.3535,0.424 0.5386,0.6736 1.0639,1.4327 2.7801,3.0362 4.384,4.0955 0.6039,0.3989 1.1483,0.7252 1.2099,0.7252 0.062,0 0.129,0.041 0.1505,0.091 0.024,0.05 0.3439,0.2341 0.7182,0.4094 2.5458,1.1962 5.5146,1.8853 8.1103,1.8822 1.3168,0 3.6364,-0.3143 4.594,-0.6198 0.2496,-0.079 0.6578,-0.2055 0.9074,-0.2807 5.4095,-1.6221 9.965,-6.1007 11.8325,-11.6327 0.6922,-2.0509 0.8601,-3.1609 0.8658,-5.7282 0,-2.2988 -0.072,-3.0395 -0.4713,-4.5374 -0.091,-0.343 -0.2078,-0.777 -0.2565,-0.964 -0.4421,-1.6689 -1.9832,-4.6265 -3.0739,-5.8984 -1.6782,-1.9575 -2.6301,-2.8269 -4.4566,-4.0709 -1.8096,-1.2328 -4.8234,-2.3748 -7.3455,-2.7835 -1.0068,-0.1624 -4.4863,-0.1289 -5.5451,0.053 l 0,0 z m 6.068,7.9916 3.0603,3.062 -2.0626,2.0506 -2.0623,2.0506 -0.6585,-0.6306 c -0.3622,-0.3466 -0.687,-0.6311 -0.7221,-0.632 -0.036,0 -0.2126,0.1528 -0.3932,0.3423 l -0.3294,0.3437 1.7793,1.7793 1.7793,1.7792 0.3437,-0.3294 c 0.1887,-0.1815 0.3437,-0.3697 0.3437,-0.4192 0,-0.05 -0.2857,-0.3621 -0.6346,-0.6948 l -0.6345,-0.6048 2.075,-2.0681 2.0748,-2.068 3.0402,3.0385 c 1.672,1.6711 3.0402,3.0689 3.0402,3.1062 0,0.091 -3.9316,4.0045 -4.0671,4.0496 -0.057,0.024 -0.2078,-0.096 -0.3322,-0.2537 -0.1242,-0.16 -0.2752,-0.289 -0.334,-0.289 -0.057,0 -1.2143,1.1057 -2.5687,2.4569 l -2.4624,2.4572 0.349,0.36 0.349,0.3602 -2.0741,2.0597 -2.074,2.0597 -3.0345,-3.0329 c -1.6689,-1.6679 -3.0342,-3.0664 -3.0342,-3.108 0,-0.067 2.5981,-2.6987 3.667,-3.715 l 0.4058,-0.3858 0.6576,0.638 0.6576,0.6383 0.4486,-0.4477 0.4488,-0.4473 -1.7915,-1.7784 -1.7914,-1.7783 -0.4579,0.4579 -0.4579,0.4582 0.6962,0.6647 0.6963,0.6648 -2.079,2.0637 -2.0788,2.0638 -3.0973,-3.099 -3.0973,-3.0988 2.0666,-2.0771 2.0664,-2.0769 0.3349,0.3836 0.3351,0.3836 2.514,-2.5142 2.5142,-2.514 -0.3081,-0.3218 c -0.1696,-0.1767 -0.3081,-0.3597 -0.3081,-0.4063 0,-0.1266 3.8934,-4.0264 4.0274,-4.0353 0.062,0 1.4914,1.3701 3.1747,3.0541 z m -472.1348,5.7407 c 1.402,-4.24 2.168,-9.02401 -0.5,-19.75001 l -25.75,-103.5 c -2.668,-10.71104 -5.981,-15.512 -9.5,-19.75 l 62.8697,0.04 c -2.3287,4.756 -2.1307,8.78112 -0.064,19.60968 l 13.4456,56.85224 c 1.453,5.804 4.117,8 9.25,8 l 21,0 c 5.1451,0 6.946,-2.196 5.5,-8 l -13.75,-56.75 c -3.0436,-10.18816 -4.3337,-15.26032 -8.5,-20.5 l 64.6175,0.788 c -4.8145,5.78272 -2.9789,19.60976 -2.9789,19.60976 l 12.3614,52.85216 c 4.789,19.207 -0.8869,32.5 -25,32.5 l -41.25,0 c -9.601,0 -13.856,-6.015 -16.25,-10.25 l -0.5,0 12,48.24997 z M 813.844,862.395 c 3.519,4.238 6.703,8.937 9.371,19.648 l 25.832,103.602 c 2.668,10.726 1.832,15.405 0.43,19.645 l 57.16,0 -12.024,-48.216 0.446,0 c 2.394,4.235 6.578,10.262 16.179,10.262 l 41.309,0 c 24.113,0 29.703,-13.391 24.914,-32.598 l -9.906,-39.742 c -4.782,-19.207 -17.063,-32.601 -41.18,-32.601 l -44.422,0 c -5.59,0 -7.371,3.574 -9.277,11.167 l -6.133,-11.167 z m 64.297,28.578 c -1.45,-5.801 0.218,-8.039 5.359,-8.039 l 20.988,0 c 5.137,0 7.922,2.238 9.375,8.039 l 11.91,47.785 c 1.446,5.804 -0.226,8.043 -5.371,8.043 l -20.984,0 c -5.133,0 -7.918,-2.239 -9.371,-8.043 z m 114.836,52.254 c 3.617,14.507 1.992,18.746 0.207,24.109 l 58.496,0 -20.15,-80.832 c -3.62,-14.508 -1.99,-18.746 -0.21,-24.109 l -64.3,0 c 4.46,5.363 8.199,9.601 11.816,24.109 z m 67.723,62.063 -6.9,-27.681 -51.81,0 6.9,27.681 z m 69.25,-132.403 -0.45,0 c -2.45,-4.461 -6.63,-10.492 -16.23,-10.492 l -41.31,0 c -24.12,0 -29.71,13.394 -24.92,32.601 l 9.91,39.742 c 4.78,19.207 17.06,32.598 41.17,32.598 l 41.53,0 c 10.28,0 13.51,-3.125 13.74,-11.164 l 0.45,0 5.46,11.164 c 64.8973,-0.53477 49.7716,10.29323 39.93,-27.91 l -19.21,-77.031 c -7.4,-29.7 -20.18,-39.747 -45.18,-39.747 l -96.91,0 3,26.352 c 7.54,-3.797 12.62,-5.809 22.89,-5.809 l 45.32,0 c 11.39,0 14.13,2.907 17.3,15.629 z m 16.31,65.422 c 1.5,6.031 0.33,8.492 -5.48,8.492 l -20.54,0 c -5.81,0 -8.2,-2.461 -9.71,-8.492 l -11.69,-46.887 c -1.5,-6.027 -0.33,-8.488 5.48,-8.488 l 20.54,0 c 5.8,0 8.21,2.461 9.71,8.488 z m 60.82,29.027 c -804.72,-644.89067 -402.36,-322.44533 0,0 z m 275.83,0 c 25.23,0 32.61,-10.715 25.43,-39.52 l -11.42,-45.773 c -2.67,-10.711 -1.83,-15.41 0.24,-19.648 l -52.69,0 0.21,11.613 -0.44,0 c -5.03,-9.375 -10.04,-11.613 -24.33,-11.613 l -37.52,0 c -23.66,0 -27.91,9.82 -22.45,31.71 l 1.89,7.586 c 5.46,21.883 14.6,31.711 38.27,31.711 l 48.01,0 c 7.36,0 9.37,1.782 10.6,6.7 1.17,4.687 0.1,6.699 -7.27,6.699 l -52.46,0 c -9.83,0 -15.08,-1.348 -22.1,-4.473 l 10.02,25.008 z m -54.44,-54.484 c -8.09,-0.219 -11.49,-1.336 -13.39,-8.918 l -3,-12.067 c -1.9,-7.59 0.95,-8.707 8.93,-8.933 l 12.28,0 c 10.05,0 11.56,1.566 14.9,14.964 l 3.72,14.954 z m 139.61,-8.7 -4.4,-17.648 c -3.61,-14.508 -1.99,-18.746 -0.2,-24.109 l -64.3,0 c 4.45,5.363 8.2,9.601 11.81,24.109 l 23.6,94.676 c 3.62,14.511 2,18.758 0.21,24.11 l 58.5,0 -18.65,-74.794 30.29,20.316 c 10.77,7.368 12.89,11.387 15.29,16.524 l 47.56,0 -0.11,-0.445 c -5.08,-1.563 -10.44,-3.348 -14.96,-6.25 l -27.45,-17.868 19.69,-58.937 c 3.74,-10.949 4.08,-12.285 9.61,-21.441 l -63.63,0 -12.15,48.902 z"
         id="path3018" /></g></g></svg>